<?xml version="1.0" encoding="UTF-8"?>
<svg xmlns="http://www.w3.org/2000/svg" version="1.1" viewBox="0 0 372.66 353.04">
  <defs>
    <style>
      .cls-1 {
        fill: none;
      }

      .cls-1, .cls-2, .cls-3, .cls-4, .cls-5, .cls-6, .cls-7, .cls-8, .cls-9, .cls-10, .cls-11, .cls-12 {
        stroke-miterlimit: 10;
      }

      .cls-1, .cls-3, .cls-4, .cls-5, .cls-7 {
        stroke: #000;
      }

      .cls-13 {
        fill: #f4abef;
      }

      .cls-2 {
        stroke: #f7f7f7;
      }

      .cls-2, .cls-7, .cls-8 {
        fill: #f28194;
      }

      .cls-14 {
        fill: #472a10;
      }

      .cls-3 {
        fill: #020000;
      }

      .cls-4 {
        fill: #fff;
      }

      .cls-5, .cls-9 {
        fill: #39230d;
      }

      .cls-6 {
        fill: #f7f2f3;
      }

      .cls-6, .cls-10 {
        stroke: #fff;
      }

      .cls-8 {
        stroke: #f9eff1;
      }

      .cls-9 {
        stroke: #3a230d;
      }

      .cls-10 {
        fill: #f9f3ef;
      }

      .cls-15 {
        fill: #eaa688;
      }

      .cls-16 {
        fill: #835235;
      }

      .cls-11 {
        fill: #ff4d73;
        stroke: #f77c96;
      }

      .cls-17 {
        fill: #6d7373;
      }

      .cls-18 {
        fill: #cc9072;
      }

      .cls-12 {
        fill: #160a04;
        stroke: #0f0602;
      }
    </style>
  </defs>
  <!-- Generator: Adobe Illustrator 28.6.0, SVG Export Plug-In . SVG Version: 1.2.0 Build 709)  -->
  <g>
    <g id="Layer_2">
      <g>
        <path class="cls-4" d="M94.13,101.19"/>
        <polyline class="cls-13" points="218.87 236.63 220.09 255.89 224.38 272.1 218.57 306.34 243.02 351.59 256.17 351.59 240.27 299.61 243.02 280.35 240.27 271.79 225.78 269.6 224.99 261.7 227.13 255.89 223.76 250.08 223.15 241.22 220.09 234.8"/>
        <path class="cls-14" d="M113.39,351.59l7.64-22.32,5.5-16.51v-47.08l6.42-14.98,1.53-8.25,2.75-21.71v-2.45l18.65,12.54,20.79,2.45,12.43,3.67,10.5,2.14,9.48-.92,9.78-1.53,1.22-1.83v21.1l4.28,12.84v7.34l-2.14,13.15-2.14,7.64s-1.53,8.56-1.53,9.48,8.56,13.15,9.48,14.06,8.87,18.65,8.87,19.57,6.11,11.62,6.11,11.62H113.39Z"/>
        <polygon class="cls-15" points="136.07 176.98 146.78 190.83 153.11 199.17 160.08 205.35 172.42 209.68 189.04 207.51 198.37 204.12 206.6 196.7 214.51 188.97 221.79 181.87 225.9 173.83 227.48 170.74 229.38 165.18 230.96 153.44 236.98 144.17 238.56 115.43 242.04 104 235.08 96.58 233.09 96.46 223.05 84.65 218.94 81.75 211.34 77.11 206.28 62.28 190.67 44.52 179.37 38.63 169.24 40.39 168.94 42.2 163.24 56.41 148.48 79.41 148.05 81.75 143.2 83.99 141.41 83.91 136.03 90.71 133.18 103.07 132.86 97.51 129.7 100.91 129.7 95.66 121.47 103.07 117.35 112.34 120.81 138.61 136.07 176.98"/>
        <path class="cls-17" d="M139.9,182.93l9.43,22.82,2.75,9.89,4.28,15.91-18.65-12.44-4.28,32.17-5.69,13.18-.73,46.59-13.15,40.36s-78.27,2.12-80.1,1.21-32.41-12.74-32.41-13.66-3.06-11.83,0-18.51,7.64-38.23,9.78-43.09,5.2-16.99,6.42-20.03,9.48-21.24,10.39-22.45,18.65-13.35,18.65-13.35l13.76-10.92h14.37l53.5-20.63,11.66-7.04Z"/>
        <path class="cls-18" d="M139.43,181.85l14.93,17.48,6.73,6.11,11.92,4.28,16.06-2.14,9.01-3.36,13.45-12.84,2.14-2.14v12.54s.31,6.11-.31,7.95.38,11.31.38,11.31l5.35,2.13v9.18l-.23,4.28-19.26,2.45-22.93-5.81-13.76-1.62-4.89-17.13-9.17-9.68-9.43-22.99"/>
        <polyline class="cls-16" points="139.43 181.85 148.86 205.22 159.87 217.04 162.92 230.41 155.89 231.65 148.86 205.22"/>
        <polyline class="cls-16" points="212.09 195.23 212.55 222.75 219.12 224.88 212.09 195.23"/>
        <path class="cls-17" d="M368.38,316.73l-12.23-38.52-28.11-58.7-2.16-1.22-5.2-3.49-2.98-1.59c-1.1-.49-2.15-1.05-3.16-1.69l-3.24-1.73s-.1-.04-.14-.06c-.19-.03-1.04-.2-1.99-.83-1.62-.68-3.23-1.37-4.8-2.15-4.64-2.3-8.22-5.35-13.22-6.72-1.31-.36-2.23-1.08-2.8-1.97-.74-.36-1.15-.56-1.15-.56l-14.22-1.83-11.01.61-7.03,1.53-3.97-3.67s-5.81-3.36-7.95-3.97-19.26-11.31-19.26-11.31l-10.09,10.39-.31,4.28,2.23,16.53,3.5,13.12c.58.82.91,1.78.79,2.76-.06.56-.07,1.09-.07,1.65,0,.03,0,.05,0,.08.02.08.05.17.09.34.21.85-1.08,3.51-.82,4.35.41,1.35,1.67.86.95,1.97l.04.48-.32-.02,3.37,6.44.61,8.87,3.36,5.81-2.14,5.81.92,9.17,14.37.92,2.75,8.56-1.42,7.71-1.33,11.55,1.33,13.68,9.06,21.17,5.5,17.12,9.48,1.45,38.83-1.45,18.96-4.89,33.02-4.59,16.2-14.68-4.28-10.7Z"/>
        <path class="cls-15" d="M237.62,114.09c3.88.24,3.88,7.58,3.88,7.58l-1.94,7.03-1.94,8.56-1.97,2.75,1.97-25.92Z"/>
        <path class="cls-10" d="M135.1,106.7"/>
        <ellipse class="cls-12" cx="154.03" cy="115.58" rx="6.5" ry="11.5"/>
        <ellipse class="cls-12" cx="207.55" cy="115.58" rx="6.5" ry="11.5"/>
        <path class="cls-5" d="M166.92,93.87c-.28-.8-1.87-1.03-7.03-.92-4.34.1-6.53.15-10.39.61-3.48.42-6.38.78-10.09,1.83-1.53.43-7.86,2.23-7.7,3.42.15,1.1,5.82,1.15,8.31,1.17,2.67.02,7.79.07,13.76-1.22,1.64-.36,3.3-.8,5.81-.92,1.94-.09,4.89,0,4.89,0h0s2.89-2.7,2.45-3.97Z"/>
        <path class="cls-5" d="M228.11,91.02c-.26-.81-1.84-1.08-7-1.11-4.35-.02-6.53-.04-10.41.32-3.49.32-6.4.6-10.14,1.55-1.54.39-7.92,2.01-7.79,3.2.12,1.1,5.78,1.31,8.27,1.4,2.67.1,7.79.29,13.79-.84,1.65-.31,3.32-.71,5.83-.75,1.94-.03,4.89.14,4.89.14,0,0,2.96-2.62,2.56-3.9Z"/>
        <path class="cls-9" d="M267.03,85.52l-1.84,26.3-11.62,39.13-10.39,14.37-5.2,3.06-8.56,6.42v-9.18l1.53-11.61,5.81-9.18,1.22-11.92.31-16.51,3.36-11.31-6.73-7.34-1.83,1.23s.61,8.86,0,6.42c-.61-2.45-3.98-8.57-3.98-8.57l-4.28-9.78-5.5-3.97s-1.83,3.67-1.83,2.75-3.67-8.56-3.67-8.56l-1.84,1.22-3.97-7.03-.92-7.64-6.72-8.26-3.98-5.5-2.75-2.75-10.24-6.73-4.13-.31-8.25,3.67-1.84,11.01-3.67,3.06v8.56l-2.75,13.76c-1.13,3.56-2.62,5.85-3.73,7.24-.31.39-.63.75-.86,1.01-2.43,2.8-4.89,4.89-4.89,4.89l-2.44-10.39-6.42,10.39v-8.25l-5.2,6.72-3.06,10.09h-3.06v-5.2l-3.97,3.37s-3.67,3.06-3.97,3.97c-.31.92-3.98,9.17-3.98,9.17,0,0,1.84,13.15,1.84,14.07s.61,7.95.61,7.95l3.97,17.73,4.59,13.15,2.33,5.99,1.95,5.01-7.03-2.44-1.53-2.14-6.73-13.46-6.73-8.86-3.05-4.89-5.51-12.54-2.75-10.39-3.36-8.87v-8.25l2.14-23.55,8.25-33.32,10.4-15.29L156.35,3.89l19.87-1.87,9.17,3.1,2.45,3.97,3.83-5.2,7.18-3.36,16.51,4.59,11.92,3.97,25.99,38.22,4.58,9.78,9.18,28.43Z"/>
        <path class="cls-5" d="M180.96,129.93s-8.73,21.61-3.06,25.38c1.98,1.32,5.5.31,5.5.31l-5.5-.31c-5.68-3.77,3.06-25.38,3.06-25.38Z"/>
        <path class="cls-7" d="M156.59,171.65c.5-1.09,1.89-2.41,8.59-2.71,3.78-.17,9.15-.21,16.74-.33,20.02-.31,24.76-.65,25.53,2.33,1.03,3.97-7.03,11.33-7.82,12.03-1.71,1.5-3.63,2.7-3.63,2.7-2.43,1.52-4.49,2.28-5.07,2.48-3.61,1.26-6.73,1.36-8.72,1.39-1.93.04-4.94.06-8.48-1.01-.56-.17-2.18-.69-4.14-1.71-1.74-.9-3.12-1.86-4.15-2.66-1.08-.86-10.67-8.55-8.85-12.51Z"/>
        <path class="cls-6" d="M158.8,173.91h0c0,2.12,1.35,3.85,3.02,3.85h40.43c1.36,0,2.54-1.15,2.91-2.82h0c.53-2.45-.91-4.88-2.91-4.88h-40.43c-1.67,0-3.02,1.72-3.02,3.85Z"/>
        <path class="cls-7" d="M176.68,181.6"/>
        <path class="cls-11" d="M179.97,181.49c-4.69.13-9.38.26-14.06.39,1.06,1.38,2.77,3.25,5.2,4.69,2.8,1.65,5.16,1.74,9.17,1.95,3.44.18,5.56.29,8.25-.78,1.49-.59,2.63-1.3,4.89-2.73,3.1-1.97,4.66-2.95,4.59-3.51-.11-.88-3.54-1.44-18.04,0Z"/>
        <circle class="cls-8" cx="157.82" cy="267.89" r="4.35"/>
        <circle class="cls-2" cx="197.13" cy="270.29" r="4.35"/>
        <path class="cls-3" d="M181.96,284.59c0,.74-.61,1.35-1.35,1.35-.74,0-1.35-.61-1.35-1.35s.61-1.35,1.35-1.35c.74,0,1.35.61,1.35,1.35Z"/>
        <circle class="cls-8" cx="407.4" cy="252.72" r=".5"/>
        <path class="cls-3" d="M180.61,285.94c.02-.1-.16.94-.67,1.8,0,0-.06.09-.11.17-.48.74-1.44,1.55-2.23,1.92-1.8.84-3.96-.08-3.93-.07.32.14,2.04.86,3.93.07,2.49-1.03,2.98-3.72,3.01-3.89Z"/>
        <path class="cls-3" d="M1.5,192.3"/>
        <path class="cls-3" d="M182.18,290.06c1.63-.29,3.26-.57,4.89-.86-1.41,1.26-3.39,1.59-4.89.86-1.62-.79-1.99-2.48-2.04-2.73-.27-1.34.28-2.4.47-2.73l1.57,5.47Z"/>
        <line class="cls-1" x1="114.93" y1="268.4" x2="139.43" y2="276.68"/>
        <line class="cls-1" x1="113.39" y1="280.05" x2="139.43" y2="281.57"/>
        <line class="cls-1" x1="113.39" y1="293.19" x2="139.43" y2="285.94"/>
        <line class="cls-1" x1="215.6" y1="279.13" x2="234.16" y2="274.64"/>
        <line class="cls-1" x1="216.88" y1="283.25" x2="237.37" y2="283.25"/>
        <line class="cls-1" x1="216.88" y1="287.52" x2="237.37" y2="298.08"/>
      </g>
    </g>
  </g>
</svg>