<?xml version="1.0" encoding="UTF-8"?>
<svg width="142.53mm" height="140.87mm" version="1.1" viewBox="0 0 505.04091 499.1317" xmlns="http://www.w3.org/2000/svg">
 <defs>
  <filter id="a" x="-.072429" y="-.051212" width="1.1449" height="1.1024" color-interpolation-filters="sRGB">
   <feGaussianBlur stdDeviation="2.7981858"/>
  </filter>
 </defs>
 <g transform="translate(-228.24 -332.12)">
  <g transform="translate(-64.361 -26.923)">
   <path d="m438.19 383.48v131.13h92.721v-101.41l-24.26-29.729h-68.461z" fill="gray" filter="url(#a)"/>
   <path d="m438.19 383.48h68.461c8.0847 9.9078 16.174 19.819 24.26 29.728v101.41h-92.721z" fill="#f2f2f2" fill-opacity=".99398"/>
   <path d="m506.65 383.48 24.26 29.728-23.845-0.83857z" fill="#b3b3b3" fill-opacity=".99398"/>
   <path d="m450.87 418.8v5h8.0195v-5h-8.0195zm11.227 0v5h56.133v-5h-56.133zm-11.227 8v5h8.0195v-5h-8.0195zm11.227 0v5h56.133v-5h-56.133zm-11.227 8v5h8.0195v-5h-8.0195zm11.227 0v5h56.133v-5h-56.133zm-11.227 8v5h8.0195v-5h-8.0195zm11.227 0v5h56.133v-5h-56.133zm-11.227 7.4824v5h8.0195v-5h-8.0195zm11.227 0v5h56.133v-5h-56.133zm-11.227 8v5h8.0195v-5h-8.0195zm11.227 0v5h56.133v-5h-56.133zm-11.227 8v5h8.0195v-5h-8.0195zm11.227 0v5h56.133v-5h-56.133zm-11.227 8v5h8.0195v-5h-8.0195zm11.227 0v5h56.133v-5h-56.133z" fill="gray"/>
  </g>
  <g transform="translate(7.5001 -15)">
   <path d="m487.48 371.55v131.13h92.721v-101.41l-24.26-29.729h-68.461z" fill="gray" filter="url(#a)"/>
   <path d="m487.48 371.55h68.461c8.0847 9.9078 16.174 19.819 24.26 29.728v101.41h-92.721z" fill="#f2f2f2" fill-opacity=".99398"/>
   <path d="m555.94 371.55 24.26 29.728-23.845-0.83857z" fill="#b3b3b3" fill-opacity=".99398"/>
   <path d="m503.84 407.12v35h27.525v10l-10 15h5l7.5-11.25 7.5 11.25h5l-10-15v-10h27.475v-35h-60zm16.42 3.3691c0.0991-0.0109 0.19899-7e-3 0.29688 0.0117 1.3549 0.2559 1.6211 3.8047 1.6211 3.8047 0-1e-5 1.8862 0.76543 2.0859 1.623 0.39321 1.6886-0.62414 4.1432-2.2734 4.6777-1.2567 0.40733-3.4922-1.8711-3.4922-1.8711s-0.28354 1.4493-0.87304 1.6211c-0.77756 0.22664-2.1211-1.1856-2.1211-1.1856s-2.6775 1.374-3.8691 0.8125c-0.84983-0.40041-1.3086-2.4961-1.3086-2.4961s-1.7882 1.6611-2.6836 1.248c-0.7055-0.32547-1.1459-1.6714-0.62304-2.2461 0.39806-0.43747 1.7461 0.3125 1.7461 0.3125s-0.53138-0.75899-0.38086-1.125c0.50018-1.2162 2.2313-1.9743 3.5293-1.7637 0.82096 0.13331 1.7637 1.7637 1.7637 1.7637s-1.0005-2.911 0-3.5293c1.1186-0.69134 3.5293 1.7656 3.5293 1.7656s1.5662-3.2602 3.0527-3.4238zm14.217 3.5527a3.0055 3.0055 0 0 1 3.0059 3.0059 3.0055 3.0055 0 0 1 -3.0059 3.0059 3.0055 3.0055 0 0 1 -3.0039 -3.0059 3.0055 3.0055 0 0 1 3.0039 -3.0059zm14.145 2.3457c0.96444 0 1.9287 0.21863 2.6641 0.65429 3.7023 2.1932 6.2602 7.4255 7.9473 12.381h3.1855v0.23242c-1.0043 0-2.0808 0.016-3.0996 0.0195 1.86 5.5501 2.625 10.68 2.625 10.68h-39s0.71002-5.4903 2.5234-10.391c-6.7569 0.0352-13.452 0.0316-19.807-0.12305v-0.41797h20.018c1.0248-2.6199 2.37-5.0072 4.1133-6.1875 0.94502-0.63982 2.4788-0.63982 3.4238 0 1.7411 1.1788 3.0702 3.5712 4.0938 6.1875h0.70313c1.6868-4.9554 4.243-10.188 7.9453-12.381 0.7354-0.43566 1.6996-0.65429 2.6641-0.65429zm-10.762 13.48c-0.12424 1e-3 -0.24682 4e-3 -0.37109 6e-3 0.0632 0.16911 0.13866 0.32965 0.19922 0.5 0.0536-0.16693 0.11626-0.33791 0.17187-0.50585z" fill="gray"/>
  </g>
  <g transform="translate(22.5 -15)">
   <path d="m593.63 371.55v131.13h92.721v-101.41l-24.26-29.729h-68.461z" fill="gray" filter="url(#a)"/>
   <path d="m593.63 371.55h68.461c8.0847 9.9078 16.174 19.819 24.26 29.728v101.41h-92.721z" fill="#f2f2f2" fill-opacity=".99398"/>
   <path d="m662.09 371.55 24.26 29.728-23.845-0.83857z" fill="#b3b3b3" fill-opacity=".99398"/>
   <path d="m614.3 417.81c-2.3199 0-3.4799 1.1846-3.4799 3.5539v8.5886c0 1.2504 0.41956 2.2788 1.2587 3.085l11.575 10.958v7.5767h-7.0584v-7.8729h-5.7751v9.2056c0 2.3528 1.16 3.5292 3.4799 3.5292h11.624c2.3364 0 3.5045-1.1764 3.5045-3.5292v-9.2056c0-1.2998-0.41955-2.3446-1.2587-3.1343l-11.575-10.908v-6.9844h7.0584v7.2806h5.7751v-8.6379c0-2.3364-1.1682-3.5045-3.5045-3.5045h-11.624zm23.421 0c-2.3364 0-3.5045 1.1846-3.5045 3.5539v31.541c0 2.3528 1.1435 3.5292 3.4305 3.5292h12.142c2.3528 0 3.5292-1.1764 3.5292-3.5292v-17.152h-10.094v4.9113h4.2943v10.81h-7.5273v-28.703h7.5273v6.8363h5.7998v-8.2431c0-2.3693-1.1764-3.5539-3.5292-3.5539h-12.068zm18.979 0 7.3793 38.673h5.7504l7.4039-38.673h-5.7751l-4.3436 26.481c-0.11518 1.4479-0.16453 2.5502-0.14808 3.3071-0.0658-1.4479-0.11518-2.5503-0.14808-3.3071l-4.319-26.481h-5.7998z" fill="gray"/>
   <path d="m600.57 440.54c-0.71808 0-1.3028 0.58964-1.3027 1.3144 0 0.7248 0.58466 1.3164 1.3027 1.3164 0.27509-1e-5 0.51636-0.10603 0.72656-0.25391 4e-3 0.0122 0.0109 0.0235 0.0195 0.0332l9.7012 12.041-0.32421 0.23633a0.10001 0.10001 0 0 0 -0.0215 0.13867l0.78125 1.0664a0.10001 0.10001 0 0 0 0.13867 0.0234l0.45313-0.33007 9.7129 12.057c5e-3 6e-3 0.01 0.0123 0.0156 0.0176-0.25244 0.24044-0.41406 0.57605-0.41406 0.95313-1e-5 0.7248 0.5827 1.3144 1.3008 1.3144 0.71808 0 1.3028-0.58964 1.3027-1.3144 0-0.7248-0.58466-1.3164-1.3027-1.3164-0.27509 1e-5 -0.51636 0.10603-0.72656 0.25391-4e-3 -0.0122-0.0109-0.0235-0.0195-0.0332l-9.709-12.051 0.3418-0.24805a0.10001 0.10001 0 0 0 0.0215 -0.14063l-0.7793-1.0684a0.10001 0.10001 0 0 0 -0.14063 -0.0195l-0.4707 0.34375-9.7051-12.049c-5e-3 -6e-3 -0.01-0.0123-0.0156-0.0176 0.25244-0.24043 0.41406-0.57605 0.41406-0.95313 1e-5 -0.7248-0.5827-1.3144-1.3008-1.3144zm0 0.19922c0.60868 0 1.0996 0.49723 1.0996 1.1152 0 0.618-0.49093 1.1172-1.0996 1.1172-0.60868 0-1.1016-0.49918-1.1016-1.1172 0-0.61801 0.49288-1.1152 1.1016-1.1152zm11.115 14.01 0.66211 0.90625-0.79297 0.57813-0.66015-0.90625 0.79101-0.57813zm10.975 13.287c0.60868 0 1.1016 0.49918 1.1016 1.1172 0 0.61801-0.49288 1.1152-1.1016 1.1152-0.60868 0-1.0996-0.49723-1.0996-1.1152 0-0.618 0.49093-1.1172 1.0996-1.1172z" color="black" color-rendering="auto" fill="#673420" image-rendering="auto" shape-rendering="auto" solid-color="black" style="block-progression:tb;isolation:auto;mix-blend-mode:normal;text-decoration-color:black;text-decoration-line:none;text-decoration-style:solid;text-indent:0;text-transform:none;white-space:normal"/>
   <path d="m667.31 444.29c0-0.71808-0.58964-1.3028-1.3144-1.3027-0.72479 0-1.3164 0.58466-1.3164 1.3027 1e-5 0.27509 0.10602 0.51636 0.25391 0.72656-0.0122 4e-3 -0.0235 0.0109-0.0332 0.0195l-12.041 9.7012-0.23632-0.32421a0.10001 0.10001 0 0 0 -0.13868 -0.0215l-1.0664 0.78125a0.10001 0.10001 0 0 0 -0.0234 0.13867l0.33007 0.45313-12.057 9.7129c-6e-3 5e-3 -0.0123 0.01-0.0176 0.0156-0.24043-0.25244-0.57605-0.41406-0.95312-0.41406-0.7248-1e-5 -1.3145 0.5827-1.3145 1.3008 0 0.71808 0.58964 1.3028 1.3145 1.3027 0.72479 0 1.3164-0.58466 1.3164-1.3027-1e-5 -0.27509-0.10604-0.51636-0.25391-0.72656 0.0122-4e-3 0.0235-0.0109 0.0332-0.0195l12.051-9.709 0.24805 0.3418a0.10001 0.10001 0 0 0 0.14062 0.0215l1.0684-0.7793a0.10001 0.10001 0 0 0 0.0195 -0.14063l-0.34375-0.4707 12.049-9.7051c6e-3 -5e-3 0.0123-0.01 0.0176-0.0156 0.24043 0.25244 0.57605 0.41406 0.95313 0.41406 0.7248 1e-5 1.3145-0.5827 1.3145-1.3008zm-0.19922 0c0 0.60868-0.49722 1.0996-1.1152 1.0996-0.618 0-1.1172-0.49094-1.1172-1.0996 0-0.60868 0.49918-1.1016 1.1172-1.1016s1.1152 0.49288 1.1152 1.1016zm-14.01 11.115-0.90625 0.66211-0.57813-0.79297 0.90625-0.66015 0.57813 0.79101zm-13.287 10.975c0 0.60868-0.49918 1.1016-1.1172 1.1016-0.61801 0-1.1152-0.49288-1.1152-1.1016 0-0.60869 0.49723-1.0996 1.1152-1.0996 0.618 0 1.1172 0.49093 1.1172 1.0996z" color="black" color-rendering="auto" fill="#673420" image-rendering="auto" shape-rendering="auto" solid-color="black" style="block-progression:tb;isolation:auto;mix-blend-mode:normal;text-decoration-color:black;text-decoration-line:none;text-decoration-style:solid;text-indent:0;text-transform:none;white-space:normal"/>
  </g>
  <g transform="translate(-22.5)">
   <path d="m275.18 516.12v131.13h92.721v-101.41l-24.26-29.729h-68.461z" fill="gray" filter="url(#a)"/>
   <path d="m275.18 516.12h68.461c8.0847 9.9078 16.174 19.819 24.26 29.728v101.41h-92.721z" fill="#f2f2f2" fill-opacity=".99398"/>
   <path d="m343.64 516.12 24.26 29.728-23.845-0.83857z" fill="#b3b3b3" fill-opacity=".99398"/>
   <path d="m283.3 572.2v23.835h3.5638v-10.691h4.8278v10.691h3.5942v-23.835h-3.5942v9.8232h-4.8278v-9.8232h-3.5638zm13.813 0v3.1526h3.9293v20.682h3.5486v-20.682h3.9293v-3.1526h-11.407zm13.235 0v23.835h3.4267v-11.757c0-0.59904-0.0711-1.4621-0.21322-2.5891l3.0917 12.169h1.8123l3.0764-12.169c-0.14215 1.1067-0.21322 1.9697-0.21322 2.5891v11.757h3.4267v-23.835h-3.3658l-3.7465 13.174c-0.0609 0.46704-0.0914 0.82748-0.0914 1.0813-0.0203-0.57874-0.0507-0.93918-0.0914-1.0813l-3.7465-13.174h-3.3658zm17.301 0v23.835h9.3664v-3.183h-5.8026v-20.652h-3.5638zm11.864 0-0.38074 11.605h7.9195v9.1684h-4.4167v-4.6146h-3.5029v5.498c0 1.4519 0.70565 2.1779 2.117 2.1779h7.1428c1.4418 0 2.1626-0.72596 2.1626-2.1779v-10.95c0-1.4418-0.72088-2.1626-2.1626-2.1626h-5.8026l0.22845-5.4218h7.5692v-3.1221h-10.874z" fill="gray"/>
  </g>
  <g transform="translate(-7.5 6.6667e-7)">
   <path d="m381.33 516.12v131.13h92.721v-101.41l-24.26-29.729h-68.461z" fill="gray" filter="url(#a)"/>
   <path d="m381.33 516.12h68.461c8.0847 9.9078 16.174 19.819 24.26 29.728v101.41h-92.721z" fill="#f2f2f2" fill-opacity=".99398"/>
   <path d="m449.79 516.12 24.26 29.728-23.845-0.83857z" fill="#b3b3b3" fill-opacity=".99398"/>
   <path d="m394.87 572.52c-1.7268 0-2.5901 0.89443-2.5901 2.6833v23.814c0 1.7764 0.86338 2.6647 2.5901 2.6647h9.0934c1.7764 0 2.6647-0.88823 2.6647-2.6647v-7.2114h-4.3417v6.1306h-5.6461v-21.671h5.6461v5.7579h4.3417v-6.8201c0-1.7889-0.88823-2.6833-2.6647-2.6833h-9.0934zm17.851 0c-1.7516 0-2.6274 0.89443-2.6274 2.6833v6.4847c0 0.94413 0.31678 1.7205 0.95034 2.3293l8.7394 8.2735v5.7207h-5.3294v-5.9443h-4.3604v6.9505c0 1.7764 0.8758 2.6647 2.6274 2.6647h8.7767c1.764 0 2.646-0.88823 2.646-2.6647v-6.9505c0-0.98139-0.31678-1.7702-0.95033-2.3665l-8.7394-8.2363v-5.2734h5.3294v5.4971h4.3604v-6.5219c0-1.764-0.88201-2.646-2.646-2.646h-8.7767zm17.591 0c-1.7516 0-2.6274 0.89443-2.6274 2.6833v6.4847c0 0.94413 0.31678 1.7205 0.95034 2.3293l8.7394 8.2735v5.7207h-5.3294v-5.9443h-4.3604v6.9505c0 1.7764 0.8758 2.6647 2.6274 2.6647h8.7766c1.764 0 2.646-0.88823 2.646-2.6647v-6.9505c0-0.98139-0.31678-1.7702-0.95033-2.3665l-8.7394-8.2363v-5.2734h5.3294v5.4971h4.3604v-6.5219c0-1.764-0.88201-2.646-2.646-2.646h-8.7766zm17.684 0c-1.764 0-2.646 0.89443-2.646 2.6833v6.3729h4.2858v-5.3107h5.6089v6.1492l-5.348 3.615v0.91307l5.348 3.6709v7.3232h-5.6089v-5.6461h-4.2858v6.7269c0 1.7764 0.86338 2.6647 2.5901 2.6647h8.9444c1.7516 0 2.6274-0.88823 2.6274-2.6647v-8.1804c0-1.1677-0.47207-2.0435-1.4162-2.6274l-2.7392-1.7143 2.7019-1.7516c0.96898-0.63356 1.4535-1.528 1.4535-2.6833v-6.8574c0-1.7889-0.8758-2.6833-2.6274-2.6833h-8.8885z" fill="gray"/>
  </g>
  <g transform="translate(7.5)">
   <path d="m487.48 516.12v131.13h92.721v-101.41l-24.26-29.729h-68.461z" fill="gray" filter="url(#a)"/>
   <path d="m487.48 516.12h68.461c8.0847 9.9078 16.174 19.819 24.26 29.728v101.41h-92.721z" fill="#f2f2f2" fill-opacity=".99398"/>
   <path d="m555.94 516.12 24.26 29.728-23.845-0.83857z" fill="#b3b3b3" fill-opacity=".99398"/>
   <path d="m500.25 561.92v39.529h5.9102v-14.32h9.5723c2.4079 0 3.6133-1.229 3.6133-3.6875v-17.883c0-2.4248-1.2053-3.6387-3.6133-3.6387h-15.482zm23.439 0v39.529h5.9102v-17.73h8.0078v17.73h5.9609v-39.529h-5.9609v16.293h-8.0078v-16.293h-5.9102zm24.652 0v39.529h5.9102v-14.32h9.5723c2.4079 0 3.6133-1.229 3.6133-3.6875v-17.883c0-2.4248-1.2053-3.6387-3.6133-3.6387h-15.482zm-42.18 5.08h7.2246v15.053h-7.2246v-15.053zm48.092 0h7.2246v15.053h-7.2246v-15.053z" fill="gray"/>
  </g>
  <g transform="translate(22.5)">
   <path d="m593.63 516.12v131.13h92.721v-101.41l-24.26-29.729h-68.461z" fill="gray" filter="url(#a)"/>
   <path d="m593.63 516.12h68.461c8.0847 9.9078 16.174 19.819 24.26 29.728v101.41h-92.721z" fill="#f2f2f2" fill-opacity=".99398"/>
   <path d="m662.09 516.12 24.26 29.728-23.845-0.83857z" fill="#b3b3b3" fill-opacity=".99398"/>
   <path d="m628.44 566.82-5.7422 29.625v0.0762h4.3789l0.89063-5.6289h5.5527l0.89063 5.6289h4.3984l-5.7051-29.701h-4.6641zm34.801 0-5.7441 29.625v0.0762h4.3789l0.89062-5.6289h5.5527l0.89258 5.6289h4.3965l-5.7051-29.701h-4.6621zm-47.48 0.0371v25.854h-4.9648v-6.1973h-4.418v7.2969c0 1.807 0.89216 2.7109 2.6738 2.7109h8.4141c1.8196 0 2.7305-0.90399 2.7305-2.7109v-26.953h-4.4355zm24.527 0 5.666 29.701h4.416l5.6875-29.701h-4.4356l-3.3359 20.338c-0.0885 1.112-0.12592 1.9598-0.11328 2.541-0.0506-1.112-0.09-1.9598-0.11524-2.541l-3.3164-20.338h-4.4531zm-9.5527 6.8438 2.1602 13.381h-4.3398l2.1797-13.381zm34.799 0 2.1602 13.381h-4.3398l2.1797-13.381z" fill="gray"/>
  </g>
  <g transform="translate(-22.5 -15)">
   <path d="m275.18 371.55v131.13h92.721v-101.41l-24.26-29.729h-68.461z" fill="gray" filter="url(#a)"/>
   <path d="m275.18 371.55h68.461c8.0847 9.9078 16.174 19.819 24.26 29.728v101.41h-92.721z" fill="#f2f2f2" fill-opacity=".99398"/>
   <path d="m343.64 371.55 24.26 29.728-23.845-0.83857z" fill="#b3b3b3" fill-opacity=".99398"/>
   <path d="m327.43 414.2-18.105 45.439v0.41016h6.2402l18.105-45.41v-0.43945h-6.2402zm-21.738 12.188-17.373 12.129v3.4863l17.021 12.1h0.35156v-7.0606l-10.078-6.7969 10.078-6.7676v-7.0898zm31.611 0v7.0898l10.137 6.7676-10.137 6.7969v7.0606h0.41015l17.05-12.11v-3.4863l-17.051-12.129h-0.41015z" fill="gray"/>
  </g>
  <g transform="translate(-22.5 15)">
   <path d="m275.18 660.69v131.13h92.721v-101.41l-24.26-29.729h-68.461z" fill="gray" filter="url(#a)"/>
   <path d="m275.18 660.69h68.461c8.0847 9.9078 16.174 19.819 24.26 29.728v101.41h-92.721z" fill="#f2f2f2" fill-opacity=".99398"/>
   <path d="m343.64 660.69 24.26 29.728-23.845-0.83857z" fill="#b3b3b3" fill-opacity=".99398"/>
   <path transform="translate(250.74 317.12)" d="m46.277 402.97l-2.377 12.27v0.03h1.813l0.369-2.33h2.299l0.369 2.33h1.822l-2.363-12.3h-1.932zm14.414 0l-2.379 12.27v0.03h1.813l0.369-2.33h2.301l0.369 2.33h1.82l-2.363-12.3h-1.93zm-19.664 0.02v10.71h-2.058v-2.57h-1.828v3.02c0 0.75 0.369 1.12 1.107 1.12h3.484c0.754 0 1.131-0.37 1.131-1.12v-11.16h-1.836zm10.157 0l2.347 12.3h1.83l2.354-12.3h-1.836l-1.383 8.42c-0.037 0.46-0.052 0.81-0.047 1.05-0.021-0.46-0.036-0.81-0.047-1.05l-1.373-8.42h-1.845zm15.904 0c-0.738 0-1.108 0.38-1.108 1.13v2.73c0 0.4 0.134 0.73 0.401 0.98l3.681 3.49v2.41h-2.244v-2.51h-1.838v2.93c0 0.75 0.37 1.12 1.108 1.12h3.697c0.743 0 1.115-0.37 1.115-1.12v-2.93c0-0.41-0.133-0.74-0.4-0.99l-3.682-3.47v-2.22h2.244v2.31h1.838v-2.75c0-0.74-0.372-1.11-1.115-1.11h-3.697zm7.426 0c-0.728 0-1.09 0.38-1.09 1.13v10.03c0 0.75 0.362 1.12 1.09 1.12h3.832c0.748 0 1.121-0.37 1.121-1.12v-3.04h-1.828v2.59h-2.379v-9.13h2.379v2.42h1.828v-2.87c0-0.75-0.373-1.13-1.121-1.13h-3.832zm6.445 0v12.28h1.838v-10.7h2.314v3.89h-1.804v1.11l2.025 5.7h1.914l-2.025-5.56c0.607 0 1.005-0.04 1.193-0.12 0.351-0.15 0.527-0.49 0.527-1v-4.47c0-0.75-0.369-1.13-1.107-1.13h-4.875zm7.473 0v12.28h1.838v-12.28h-1.838zm3.392 0v12.28h1.836v-4.45h2.975c0.748 0 1.123-0.38 1.123-1.14v-5.56c0-0.75-0.375-1.13-1.123-1.13h-4.811zm6.742 0v1.62h2.024v10.66h1.83v-10.66h2.03v-1.62h-5.884zm-4.906 1.58h2.246v4.68h-2.246v-4.68zm-46.431 1.25l0.894 5.55h-1.799l0.905-5.55zm14.412 0l0.894 5.55h-1.797l0.903-5.55z" fill="gray"/>
  </g>
  <g transform="translate(-7.5 15)">
   <path d="m381.33 660.69v131.13h92.721v-101.41l-24.26-29.729h-68.461z" fill="gray" filter="url(#a)"/>
   <path d="m381.33 660.69h68.461c8.0847 9.9078 16.174 19.819 24.26 29.728v101.41h-92.721z" fill="#f2f2f2" fill-opacity=".99398"/>
   <path d="m449.79 660.69 24.26 29.728-23.845-0.83857z" fill="#b3b3b3" fill-opacity=".99398"/>
   <path d="m397.23 707.52c-1.1331 0-1.6996 0.57452-1.6996 1.7235v15.296c0 1.141 0.55458 1.7116 1.6637 1.7116h5.8408c1.1251 0 1.6876-0.57052 1.6876-1.7116v-15.296c0-1.149-0.56254-1.7235-1.6876-1.7235zm10.796 0-1.4482 5.1466v0.37104h1.0772v13.214h2.7528v-18.731zm6.4872 0c-1.1331 0-1.6996 0.57452-1.6996 1.7235v15.296c0 1.141 0.55457 1.7116 1.6637 1.7116h5.8408c1.1251 0 1.6876-0.57052 1.6876-1.7116v-15.296c0-1.149-0.56255-1.7235-1.6876-1.7235zm10.796 0-1.4482 5.1466v0.37104h1.0772v13.214h2.7528v-18.731zm6.4872 0c-1.1331 0-1.6996 0.57452-1.6996 1.7235v15.296c0 1.141 0.55456 1.7116 1.6637 1.7116h5.8408c1.1251 0 1.6876-0.57052 1.6876-1.7116v-15.296c0-1.149-0.56255-1.7235-1.6876-1.7235zm10.796 0-1.4482 5.1466v0.37104h1.0772v13.214h2.7528v-18.731zm5.793 0-1.4482 5.1466v0.37104h1.0772v13.214h2.7528v-18.731zm6.4872 0c-1.133 0-1.6996 0.57452-1.6996 1.7235v15.296c0 1.141 0.55457 1.7116 1.6637 1.7116h5.8408c1.1251 0 1.6876-0.57052 1.6876-1.7116v-15.296c0-1.149-0.56254-1.7235-1.6876-1.7235zm-56.589 2.4058h3.6984v13.92h-3.6984zm17.283 0h3.6984v13.92h-3.6984zm17.283 0h3.6984v13.92h-3.6984zm23.076 0h3.6984v13.92h-3.6984zm-59.39 28.235-1.4482 5.1466v0.37104h1.0772v13.214h2.7528v-18.731zm6.4872 0c-1.1331 0-1.6996 0.57452-1.6996 1.7235v15.296c0 1.141 0.55456 1.7116 1.6637 1.7116h5.8408c1.1251 0 1.6876-0.57051 1.6876-1.7116v-15.296c0-1.149-0.56255-1.7235-1.6876-1.7235zm10.796 0-1.4482 5.1466v0.37104h1.0772v13.214h2.7528v-18.731zm6.4872 0c-1.133 0-1.6996 0.57452-1.6996 1.7235v15.296c0 1.141 0.55457 1.7116 1.6637 1.7116h5.8408c1.1251 0 1.6876-0.57051 1.6876-1.7116v-15.296c0-1.149-0.56255-1.7235-1.6876-1.7235zm10.796 0-1.4482 5.1466v0.37104h1.0772v13.214h2.7529v-18.731zm6.4872 0c-1.1331 0-1.6996 0.57452-1.6996 1.7235v15.296c0 1.141 0.55456 1.7116 1.6637 1.7116h5.8408c1.1251 0 1.6876-0.57051 1.6876-1.7116v-15.296c0-1.149-0.56254-1.7235-1.6876-1.7235zm11.49 0c-1.1331 0-1.6996 0.57452-1.6996 1.7235v15.296c0 1.141 0.55457 1.7116 1.6637 1.7116h5.8408c1.1251 0 1.6876-0.57051 1.6876-1.7116v-15.296c0-1.149-0.56255-1.7235-1.6876-1.7235zm10.796 0-1.4482 5.1466v0.37104h1.0772v13.214h2.7528v-18.731zm-55.799 2.4058h3.6984v13.92h-3.6984zm17.283 0h3.6984v13.92h-3.6984zm17.283 0h3.6984v13.92h-3.6984zm11.49 0h3.6984v13.92h-3.6984z" fill="gray"/>
  </g>
  <g transform="translate(7.5 15)">
   <path d="m487.48 660.69v131.13h92.721v-101.41l-24.26-29.729h-68.461z" fill="gray" filter="url(#a)"/>
   <path d="m487.48 660.69h68.461c8.0847 9.9078 16.174 19.819 24.26 29.728v101.41h-92.721z" fill="#f2f2f2" fill-opacity=".99398"/>
   <path d="m555.94 660.69 24.26 29.728-23.845-0.83857z" fill="#b3b3b3" fill-opacity=".99398"/>
   <path d="m500.63 702.86c-0.26077 0-0.47051 0.76844-0.47051 1.7218v43.343c0 0.95334 0.20974 1.7205 0.47051 1.7205h45.845c0.26077 0 0.47052-0.76716 0.47051-1.7205v-43.343c0-0.95335-0.20974-1.7218-0.47051-1.7218h-45.845zm64.265 6.4038c-3.7872-0.0584-15.984 9.9616-15.895 17.133 0.0958 7.7268 15.032 18.287 16.778 15.954 2.1963-9.446 2.4409-20.193 0-32.731-0.18887-0.23609-0.49154-0.35037-0.88333-0.35641zm-50.073 3.7987a7.4595 7.4595 0 0 1 7.4589 7.4602 7.4595 7.4595 0 0 1 -7.4589 7.4589 7.4595 7.4595 0 0 1 -7.4602 -7.4589 7.4595 7.4595 0 0 1 7.4602 -7.4602z" fill="gray"/>
  </g>
  <g transform="translate(22.5 15)">
   <path d="m593.63 660.69v131.13h92.721v-101.41l-24.26-29.729h-68.461z" fill="gray" filter="url(#a)"/>
   <path d="m593.63 660.69h68.461c8.0847 9.9078 16.174 19.819 24.26 29.728v101.41h-92.721z" fill="#f2f2f2" fill-opacity=".99398"/>
   <path d="m662.09 660.69 24.26 29.728-23.845-0.83857z" fill="#b3b3b3" fill-opacity=".99398"/>
   <path d="m643.77 702.07c-5.802 0.25216-12.737 5.6436-17.119 11.916h-19.946c-0.2174 0-0.39332 0.94598-0.39332 2.1216v20.286c0 1.1756 0.17592 2.1216 0.39332 2.1216h21.586c4.818 6.3568 11.559 11.926 16.367 11.926 0.25623 0 0.46279-0.64063 0.46279-1.4354v-13.426a9.3282 9.3282 0 0 0 9.3285 -9.3285 9.3282 9.3282 0 0 0 -9.3285 -9.3286v-13.416c0-0.79478-0.20656-1.4343-0.46279-1.4343-0.29258-0.0149-0.58798-0.0151-0.88712-2e-3zm11.501 1.227-0.82298 3.5078a20.211 20.211 0 0 1 15.428 22.286 20.211 20.211 0 0 1 -14.007 16.654l1.0827 3.4597a23.839 23.839 0 0 0 16.522 -19.645 23.839 23.839 0 0 0 -18.203 -26.263zm-1.6727 4.9507-0.64556 2.7511a15.852 15.852 0 0 1 12.101 17.479 15.852 15.852 0 0 1 -10.986 13.063l0.84971 2.7126a18.697 18.697 0 0 0 12.958 -15.408 18.697 18.697 0 0 0 -14.277 -20.598zm-0.53761 5.3633-0.45318 1.9313a11.129 11.129 0 0 1 8.4959 12.272 11.129 11.129 0 0 1 -7.7136 9.1714l0.59639 1.9046a13.127 13.127 0 0 0 9.0977 -10.817 13.127 13.127 0 0 0 -10.023 -14.462z" fill="gray"/>
  </g>
 </g>
</svg>
